<svg xmlns="http://www.w3.org/2000/svg" width="1080" height="650" viewBox="0 0 1080 650"><style>text{font-family:Arial,Helvetica,sans-serif;fill:#111} .axis{stroke:#111;stroke-width:1.2} .box{fill:#fff;stroke:#111;stroke-width:1.4} .muted{fill:#555} .thin{stroke:#777;stroke-width:1} .pt{fill:#fff;stroke:#111;stroke-width:2}</style><rect width="100%" height="100%" fill="white"/><text x="650" y="34" font-size="20" text-anchor="middle" class="">Localization of centered vertical individuality in original positive systems</text><text x="290" y="64" font-size="12" text-anchor="middle" class=""><tspan x="290" dy="0">Eidolon</tspan></text><text x="450" y="64" font-size="12" text-anchor="middle" class=""><tspan x="450" dy="0">Hypsignathus</tspan></text><text x="610" y="64" font-size="12" text-anchor="middle" class=""><tspan x="610" dy="0">P. hastatus 2022</tspan></text><text x="770" y="64" font-size="12" text-anchor="middle" class=""><tspan x="770" dy="0">P. hastatus 2023</tspan></text><text x="930" y="64" font-size="12" text-anchor="middle" class=""><tspan x="930" dy="0">P. hastatus 2016</tspan></text><text x="198" y="124" font-size="12" text-anchor="end" class="">Speed</text><rect x="210" y="90" width="160" height="54" fill="#fff" stroke="#bbb"/><text x="290" y="109" font-size="11" text-anchor="middle" class=""><tspan x="290" dy="0">+0.32</tspan><tspan x="290" dy="16">p=0.0002</tspan></text><rect x="370" y="90" width="160" height="54" fill="#fff" stroke="#bbb"/><text x="450" y="109" font-size="11" text-anchor="middle" class=""><tspan x="450" dy="0">+0.13</tspan><tspan x="450" dy="16">p=0.0002</tspan></text><rect x="530" y="90" width="160" height="54" fill="#fff" stroke="#bbb"/><text x="610" y="109" font-size="11" text-anchor="middle" class=""><tspan x="610" dy="0">+0.13</tspan><tspan x="610" dy="16">p=0.0002</tspan></text><rect x="690" y="90" width="160" height="54" fill="#fff" stroke="#bbb"/><text x="770" y="109" font-size="11" text-anchor="middle" class=""><tspan x="770" dy="0">+0.06</tspan><tspan x="770" dy="16">p=0.0002</tspan></text><rect x="850" y="90" width="160" height="54" fill="#fff" stroke="#bbb"/><text x="930" y="109" font-size="11" text-anchor="middle" class=""><tspan x="930" dy="0">+0.55</tspan><tspan x="930" dy="16">p=0.0076</tspan></text><text x="198" y="178" font-size="12" text-anchor="end" class="">Speed × turn</text><rect x="210" y="144" width="160" height="54" fill="#fff" stroke="#bbb"/><text x="290" y="163" font-size="11" text-anchor="middle" class=""><tspan x="290" dy="0">+0.34</tspan><tspan x="290" dy="16">p=0.0002</tspan></text><rect x="370" y="144" width="160" height="54" fill="#fff" stroke="#bbb"/><text x="450" y="163" font-size="11" text-anchor="middle" class=""><tspan x="450" dy="0">+0.15</tspan><tspan x="450" dy="16">p=0.0002</tspan></text><rect x="530" y="144" width="160" height="54" fill="#fff" stroke="#bbb"/><text x="610" y="163" font-size="11" text-anchor="middle" class=""><tspan x="610" dy="0">+0.11</tspan><tspan x="610" dy="16">p=0.0002</tspan></text><rect x="690" y="144" width="160" height="54" fill="#fff" stroke="#bbb"/><text x="770" y="163" font-size="11" text-anchor="middle" class=""><tspan x="770" dy="0">+0.06</tspan><tspan x="770" dy="16">p=0.0002</tspan></text><rect x="850" y="144" width="160" height="54" fill="#fff" stroke="#bbb"/><text x="930" y="163" font-size="11" text-anchor="middle" class=""><tspan x="930" dy="0">+0.53</tspan><tspan x="930" dy="16">p=0.0064</tspan></text><text x="198" y="232" font-size="12" text-anchor="end" class="">Place × state 2 km</text><rect x="210" y="198" width="160" height="54" fill="#fff" stroke="#bbb"/><text x="290" y="231" font-size="12" text-anchor="middle" class="">NE</text><rect x="370" y="198" width="160" height="54" fill="#fff" stroke="#bbb"/><text x="450" y="217" font-size="11" text-anchor="middle" class=""><tspan x="450" dy="0">+0.29</tspan><tspan x="450" dy="16">p=0.0002</tspan></text><rect x="530" y="198" width="160" height="54" fill="#fff" stroke="#bbb"/><text x="610" y="217" font-size="11" text-anchor="middle" class=""><tspan x="610" dy="0">+0.19</tspan><tspan x="610" dy="16">p=0.0002</tspan></text><rect x="690" y="198" width="160" height="54" fill="#fff" stroke="#bbb"/><text x="770" y="217" font-size="11" text-anchor="middle" class=""><tspan x="770" dy="0">+0.07</tspan><tspan x="770" dy="16">p=0.0022</tspan></text><rect x="850" y="198" width="160" height="54" fill="#fff" stroke="#bbb"/><text x="930" y="217" font-size="11" text-anchor="middle" class=""><tspan x="930" dy="0">+0.55</tspan><tspan x="930" dy="16">p=0.0120</tspan></text><text x="198" y="286" font-size="12" text-anchor="end" class="">Place × state 500 m</text><rect x="210" y="252" width="160" height="54" fill="#fff" stroke="#bbb"/><text x="290" y="285" font-size="12" text-anchor="middle" class="">NE</text><rect x="370" y="252" width="160" height="54" fill="#fff" stroke="#bbb"/><text x="450" y="271" font-size="11" text-anchor="middle" class=""><tspan x="450" dy="0">+0.38</tspan><tspan x="450" dy="16">p=0.0002</tspan></text><rect x="530" y="252" width="160" height="54" fill="#fff" stroke="#bbb"/><text x="610" y="271" font-size="11" text-anchor="middle" class=""><tspan x="610" dy="0">+0.09</tspan><tspan x="610" dy="16">p=0.0002</tspan></text><rect x="690" y="252" width="160" height="54" fill="#fff" stroke="#bbb"/><text x="770" y="271" font-size="11" text-anchor="middle" class=""><tspan x="770" dy="0">+0.10</tspan><tspan x="770" dy="16">p=0.0006</tspan></text><rect x="850" y="252" width="160" height="54" fill="#fff" stroke="#bbb"/><text x="930" y="271" font-size="11" text-anchor="middle" class=""><tspan x="930" dy="0">+0.45</tspan><tspan x="930" dy="16">p=0.0286</tspan></text><text x="198" y="340" font-size="12" text-anchor="end" class="">Place × state 250 m</text><rect x="210" y="306" width="160" height="54" fill="#fff" stroke="#bbb"/><text x="290" y="339" font-size="12" text-anchor="middle" class="">NE</text><rect x="370" y="306" width="160" height="54" fill="#fff" stroke="#bbb"/><text x="450" y="325" font-size="11" text-anchor="middle" class=""><tspan x="450" dy="0">+0.31</tspan><tspan x="450" dy="16">p=0.0002</tspan></text><rect x="530" y="306" width="160" height="54" fill="#fff" stroke="#bbb"/><text x="610" y="325" font-size="11" text-anchor="middle" class=""><tspan x="610" dy="0">+0.08</tspan><tspan x="610" dy="16">p=0.0002</tspan></text><rect x="690" y="306" width="160" height="54" fill="#fff" stroke="#bbb"/><text x="770" y="339" font-size="12" text-anchor="middle" class="">NE</text><rect x="850" y="306" width="160" height="54" fill="#fff" stroke="#bbb"/><text x="930" y="325" font-size="11" text-anchor="middle" class=""><tspan x="930" dy="0">+0.45</tspan><tspan x="930" dy="16">p=0.0160</tspan></text><text x="198" y="394" font-size="12" text-anchor="end" class="">Self lag ≥1 d</text><rect x="210" y="360" width="160" height="54" fill="#fff" stroke="#bbb"/><text x="290" y="393" font-size="12" text-anchor="middle" class="">NE</text><rect x="370" y="360" width="160" height="54" fill="#fff" stroke="#bbb"/><text x="450" y="379" font-size="11" text-anchor="middle" class=""><tspan x="450" dy="0">+0.15</tspan><tspan x="450" dy="16">p=0.0002</tspan></text><rect x="530" y="360" width="160" height="54" fill="#fff" stroke="#bbb"/><text x="610" y="379" font-size="11" text-anchor="middle" class=""><tspan x="610" dy="0">+0.11</tspan><tspan x="610" dy="16">p=0.0002</tspan></text><rect x="690" y="360" width="160" height="54" fill="#fff" stroke="#bbb"/><text x="770" y="379" font-size="11" text-anchor="middle" class=""><tspan x="770" dy="0">+0.06</tspan><tspan x="770" dy="16">p=0.0008</tspan></text><rect x="850" y="360" width="160" height="54" fill="#fff" stroke="#bbb"/><text x="930" y="379" font-size="11" text-anchor="middle" class=""><tspan x="930" dy="0">+0.53</tspan><tspan x="930" dy="16">p=0.0188</tspan></text><text x="198" y="448" font-size="12" text-anchor="end" class="">Self lag ≥3 d</text><rect x="210" y="414" width="160" height="54" fill="#fff" stroke="#bbb"/><text x="290" y="447" font-size="12" text-anchor="middle" class="">NE</text><rect x="370" y="414" width="160" height="54" fill="#fff" stroke="#bbb"/><text x="450" y="433" font-size="11" text-anchor="middle" class=""><tspan x="450" dy="0">+0.15</tspan><tspan x="450" dy="16">p=0.0002</tspan></text><rect x="530" y="414" width="160" height="54" fill="#fff" stroke="#bbb"/><text x="610" y="433" font-size="11" text-anchor="middle" class=""><tspan x="610" dy="0">+0.10</tspan><tspan x="610" dy="16">p=0.0002</tspan></text><rect x="690" y="414" width="160" height="54" fill="#fff" stroke="#bbb"/><text x="770" y="433" font-size="11" text-anchor="middle" class=""><tspan x="770" dy="0">+0.06</tspan><tspan x="770" dy="16">p=0.0216</tspan></text><rect x="850" y="414" width="160" height="54" fill="#fff" stroke="#bbb"/><text x="930" y="447" font-size="12" text-anchor="middle" class="">NE</text><text x="198" y="502" font-size="12" text-anchor="end" class="">Self lag ≥7 d</text><rect x="210" y="468" width="160" height="54" fill="#fff" stroke="#bbb"/><text x="290" y="501" font-size="12" text-anchor="middle" class="">NE</text><rect x="370" y="468" width="160" height="54" fill="#fff" stroke="#bbb"/><text x="450" y="487" font-size="11" text-anchor="middle" class=""><tspan x="450" dy="0">+0.16</tspan><tspan x="450" dy="16">p=0.0002</tspan></text><rect x="530" y="468" width="160" height="54" fill="#fff" stroke="#bbb"/><text x="610" y="487" font-size="11" text-anchor="middle" class=""><tspan x="610" dy="0">+0.10</tspan><tspan x="610" dy="16">p=0.0002</tspan></text><rect x="690" y="468" width="160" height="54" fill="#fff" stroke="#bbb"/><text x="770" y="501" font-size="12" text-anchor="middle" class="">NE</text><rect x="850" y="468" width="160" height="54" fill="#fff" stroke="#bbb"/><text x="930" y="501" font-size="12" text-anchor="middle" class="">NE</text><text x="198" y="556" font-size="12" text-anchor="end" class="">Same-night 2 km</text><rect x="210" y="522" width="160" height="54" fill="#fff" stroke="#bbb"/><text x="290" y="555" font-size="12" text-anchor="middle" class="">NE</text><rect x="370" y="522" width="160" height="54" fill="#fff" stroke="#bbb"/><text x="450" y="541" font-size="11" text-anchor="middle" class=""><tspan x="450" dy="0">+0.30</tspan><tspan x="450" dy="16">p=0.0002</tspan></text><rect x="530" y="522" width="160" height="54" fill="#fff" stroke="#bbb"/><text x="610" y="541" font-size="11" text-anchor="middle" class=""><tspan x="610" dy="0">+0.17</tspan><tspan x="610" dy="16">p=0.0002</tspan></text><rect x="690" y="522" width="160" height="54" fill="#fff" stroke="#bbb"/><text x="770" y="541" font-size="11" text-anchor="middle" class=""><tspan x="770" dy="0">+0.08</tspan><tspan x="770" dy="16">p=0.0286</tspan></text><rect x="850" y="522" width="160" height="54" fill="#fff" stroke="#bbb"/><text x="930" y="541" font-size="11" text-anchor="middle" class=""><tspan x="930" dy="0">+0.56</tspan><tspan x="930" dy="16">p=0.0544 • unresolved</tspan></text><text x="210" y="604" font-size="11" text-anchor="start" class="muted">NE = structurally non-evaluable under the pre-specified support requirement.</text><text x="210" y="622" font-size="11" text-anchor="start" class="muted">Secondary stress tests localize what does not absorb the signal; they are not independent confirmation.</text></svg>