<svg xmlns="http://www.w3.org/2000/svg" width="1050" height="470" viewBox="0 0 1050 470"><style>text{font-family:Arial,Helvetica,sans-serif;fill:#111} .axis{stroke:#111;stroke-width:1.2} .box{fill:#fff;stroke:#111;stroke-width:1.4} .muted{fill:#555} .thin{stroke:#777;stroke-width:1} .pt{fill:#fff;stroke:#111;stroke-width:2}</style><rect width="100%" height="100%" fill="white"/><text x="525" y="34" font-size="21" text-anchor="middle" class="">Centered vertical-distribution individuality in the original archive</text><line x1="402.22222222222223" y1="70" x2="402.22222222222223" y2="390" class="thin"/><line x1="357.0833333333333" y1="390" x2="357.0833333333333" y2="396" class="axis"/><text x="357.0833333333333" y="414" font-size="12" text-anchor="middle" class="">-0.05</text><line x1="402.22222222222223" y1="390" x2="402.22222222222223" y2="396" class="axis"/><text x="402.22222222222223" y="414" font-size="12" text-anchor="middle" class="">0.00</text><line x1="492.5" y1="390" x2="492.5" y2="396" class="axis"/><text x="492.5" y="414" font-size="12" text-anchor="middle" class="">0.10</text><line x1="582.7777777777778" y1="390" x2="582.7777777777778" y2="396" class="axis"/><text x="582.7777777777778" y="414" font-size="12" text-anchor="middle" class="">0.20</text><line x1="673.0555555555555" y1="390" x2="673.0555555555555" y2="396" class="axis"/><text x="673.0555555555555" y="414" font-size="12" text-anchor="middle" class="">0.30</text><line x1="763.3333333333334" y1="390" x2="763.3333333333334" y2="396" class="axis"/><text x="763.3333333333334" y="414" font-size="12" text-anchor="middle" class="">0.40</text><line x1="853.6111111111111" y1="390" x2="853.6111111111111" y2="396" class="axis"/><text x="853.6111111111111" y="414" font-size="12" text-anchor="middle" class="">0.50</text><line x1="943.8888888888889" y1="390" x2="943.8888888888889" y2="396" class="axis"/><text x="943.8888888888889" y="414" font-size="12" text-anchor="middle" class="">0.60</text><text x="312" y="110" font-size="13" text-anchor="end" class="">Tadarida teniotis  (n=6)</text><line x1="375.18055555555554" y1="98" x2="389.18055555555554" y2="112" class="axis"/><line x1="375.18055555555554" y1="112" x2="389.18055555555554" y2="98" class="axis"/><text x="312" y="160" font-size="13" text-anchor="end" class="">Eidolon helvum  (n=20)</text><circle cx="802.0625" cy="155" r="6" class="pt"/><text x="312" y="210" font-size="13" text-anchor="end" class="">Hypsignathus monstrosus  (n=24)</text><circle cx="561.8333333333334" cy="205" r="6" class="pt"/><text x="312" y="260" font-size="13" text-anchor="end" class="">Phyllostomus hastatus 2022  (n=33)</text><circle cx="502.7916666666667" cy="255" r="6" class="pt"/><text x="312" y="310" font-size="13" text-anchor="end" class="">Phyllostomus hastatus 2023  (n=16)</text><circle cx="508.84027777777777" cy="305" r="6" class="pt"/><text x="312" y="360" font-size="13" text-anchor="end" class="">Phyllostomus hastatus 2016  (n=10)</text><circle cx="920.4166666666666" cy="355" r="6" class="pt"/><line x1="330" y1="390" x2="980" y2="390" class="axis"/><text x="655" y="448" font-size="14" text-anchor="middle" class="">Null-calibrated centered vertical identity excess (nats/fix)</text></svg>