<svg xmlns="http://www.w3.org/2000/svg" width="1200" height="560" viewBox="0 0 1200 560">
<rect width="100%" height="100%" fill="white"/>
<style>text{font-family:Arial,Helvetica,sans-serif;fill:#111}.axis{stroke:#111;stroke-width:1.2}.null{stroke:#777;stroke-width:3}.zero{stroke:#777;stroke-width:1;stroke-dasharray:4 4}.pt{fill:white;stroke:#111;stroke-width:2}</style>
<text x="600" y="32" text-anchor="middle" font-size="22">Centered vertical-distribution individuality in the original archive</text><line x1="780.5172413793103" y1="65" x2="780.5172413793103" y2="445" class="zero"/><line x1="468.1034482758621" y1="445" x2="468.1034482758621" y2="451" class="axis"/><text x="468.1034482758621" y="470" text-anchor="middle" font-size="12">-0.6</text><line x1="572.2413793103449" y1="445" x2="572.2413793103449" y2="451" class="axis"/><text x="572.2413793103449" y="470" text-anchor="middle" font-size="12">-0.4</text><line x1="676.3793103448277" y1="445" x2="676.3793103448277" y2="451" class="axis"/><text x="676.3793103448277" y="470" text-anchor="middle" font-size="12">-0.2</text><line x1="780.5172413793103" y1="445" x2="780.5172413793103" y2="451" class="axis"/><text x="780.5172413793103" y="470" text-anchor="middle" font-size="12">0.0</text><line x1="884.655172413793" y1="445" x2="884.655172413793" y2="451" class="axis"/><text x="884.655172413793" y="470" text-anchor="middle" font-size="12">0.2</text><line x1="988.7931034482758" y1="445" x2="988.7931034482758" y2="451" class="axis"/><text x="988.7931034482758" y="470" text-anchor="middle" font-size="12">0.4</text><line x1="1092.9310344827586" y1="445" x2="1092.9310344827586" y2="451" class="axis"/><text x="1092.9310344827586" y="470" text-anchor="middle" font-size="12">0.6</text><line x1="390" y1="445" x2="1145" y2="445" class="axis"/><text x="370" y="130" text-anchor="end" font-size="14"><tspan font-style="italic">Tadarida teniotis</tspan><tspan>  (n=6)</tspan></text><line x1="547.7345884277472" y1="125" x2="1070.725780576792" y2="125" class="null"/><line x1="761.975840338866" y1="118" x2="775.975840338866" y2="132" class="axis"/><line x1="761.975840338866" y1="132" x2="775.975840338866" y2="118" class="axis"/><text x="370" y="188" text-anchor="end" font-size="14"><tspan font-style="italic">Eidolon helvum</tspan><tspan>  (n=20)</tspan></text><line x1="737.6860135971914" y1="183" x2="819.7261026877399" y2="183" class="null"/><circle cx="1011.1396290640638" cy="183" r="6" class="pt"/><text x="370" y="246" text-anchor="end" font-size="14"><tspan font-style="italic">Hypsignathus monstrosus</tspan><tspan>  (n=24)</tspan></text><line x1="733.5766729804749" y1="241" x2="800.85207719999" y2="241" class="null"/><circle cx="872.5672633652584" cy="241" r="6" class="pt"/><text x="370" y="304" text-anchor="end" font-size="14"><tspan font-style="italic">Phyllostomus hastatus</tspan><tspan> 2022  (n=33)</tspan></text><line x1="768.9193783582011" y1="299" x2="789.6365890128618" y2="299" class="null"/><circle cx="838.5454101678397" cy="299" r="6" class="pt"/><text x="370" y="362" text-anchor="end" font-size="14"><tspan font-style="italic">Phyllostomus hastatus</tspan><tspan> 2023  (n=16)</tspan></text><line x1="743.8282053442773" y1="357" x2="804.4909251238741" y2="357" class="null"/><circle cx="841.9871443897116" cy="357" r="6" class="pt"/><text x="370" y="420" text-anchor="end" font-size="14"><tspan font-style="italic">Phyllostomus hastatus</tspan><tspan> 2016  (n=10)</tspan></text><line x1="433.920542287511" y1="415" x2="1042.0492316357836" y2="415" class="null"/><circle cx="1079.3862430777579" cy="415" r="6" class="pt"/><text x="767.5" y="512" text-anchor="middle" font-size="14">Null-calibrated centered vertical identity excess (nats/fix)</text><line x1="705" y1="470" x2="760" y2="470" class="null"/><text x="773" y="475" font-size="12">central 95% permutation-null interval</text><circle cx="705" cy="495" r="5" class="pt"/><text x="723" y="500" font-size="12">met pre-specified criterion</text><line x1="700" y1="515" x2="710" y2="525" class="axis"/><line x1="700" y1="525" x2="710" y2="515" class="axis"/><text x="723" y="525" font-size="12">did not meet pre-specified criterion</text></svg>